<?xml version="1.0" encoding="utf-8"?>
<!-- Generator: Adobe Illustrator 21.0.2, SVG Export Plug-In . SVG Version: 6.00 Build 0)  -->
<svg version="1.1" id="Capa_1" xmlns="http://www.w3.org/2000/svg" xmlns:xlink="http://www.w3.org/1999/xlink" x="0px" y="0px"
	 viewBox="0 0 512 512" style="enable-background:new 0 0 512 512;" xml:space="preserve">
<style type="text/css">
	.st0{fill:#FFFFFF;}
</style>
<g>
	<path class="st0" d="M419.2,82.2l-27.1-45c-2.7-4.5-7.6-7.3-12.8-7.3s-10.1,2.8-12.8,7.3l-27.1,45c-8.8,14.6-9,32.2-0.7,47
		c5.8,10.2,14.8,17.6,25.5,21.2l-0.4,32.5h-92.1l0.3-62.4c10.7-3.6,19.8-11,25.7-21.3c8.4-14.8,8.1-32.4-0.7-47l-27.1-45
		C267.1,2.8,262.2,0,257,0s-10.1,2.8-12.8,7.3l-27.1,45c-8.8,14.6-9,32.2-0.7,47c5.8,10.3,14.9,17.7,25.5,21.3l-0.3,62.4h-93.9
		v-32.4c10.7-3.6,19.8-11,25.6-21.3c8.4-14.8,8.1-32.4-0.7-47l-27.1-45c-2.7-4.5-7.6-7.3-12.8-7.3s-10.1,2.8-12.8,7.3l-27.1,45
		c-8.8,14.6-9,32.2-0.7,47c5.8,10.3,14.9,17.7,25.6,21.3V198c0,8.3,6.7,15,15,15h108.7l-0.1,30h-23.2c-8.3,0-15,6.7-15,15v104h-23.7
		c-8.3,0-15,6.7-15,15v45h-35c-8.3,0-15,6.7-15,15v60c0,8.3,6.7,15,15,15H383c8.3,0,15-6.7,15-15v-60c0-8.3-6.7-15-15-15h-35v-45
		c0-8.3-6.7-15-15-15h-23.7V257.9c0-8.3-6.7-15-15-15h-23.1l0.1-30h107.1c8.2,0,14.9-6.6,15-14.8l0.5-47.5
		c10.8-3.6,19.9-11,25.7-21.3C428.2,114.4,428,96.8,419.2,82.2L419.2,82.2z M242.7,67.7L257,44.1l14.2,23.6
		c4.5,7.5,1.7,14.2,0.2,16.8s-5.7,8.4-14.5,8.4c-8.8,0-13-5.9-14.5-8.4S238.2,75.2,242.7,67.7L242.7,67.7z M118.5,97.7l14.2-23.6
		L147,97.7c4.5,7.5,1.7,14.2,0.2,16.8s-5.7,8.4-14.5,8.4s-13-5.9-14.5-8.4S114,105.2,118.5,97.7z M368.1,482H144.5v-30h223.6V482z
		 M318.1,422H194.5v-30h123.6V422z M279.4,362h-46.2v-89.1h46.2V362z M393.7,114.5c-1.4,2.5-5.7,8.4-14.5,8.4s-13-5.9-14.5-8.4
		c-1.4-2.5-4.3-9.3,0.2-16.8l14.2-23.6l14.2,23.6C398,105.2,395.1,111.9,393.7,114.5L393.7,114.5z"/>
</g>
</svg>
