<?xml version="1.0" encoding="utf-8"?>
<!-- Generator: Adobe Illustrator 21.0.2, SVG Export Plug-In . SVG Version: 6.00 Build 0)  -->
<svg version="1.1" id="car" xmlns="http://www.w3.org/2000/svg" xmlns:xlink="http://www.w3.org/1999/xlink" x="0px" y="0px"
	 viewBox="0 0 512 512" style="enable-background:new 0 0 512 512;" xml:space="preserve">
<style type="text/css">
	.st0{fill:#FFFFFF;}
</style>
<g>
	<path class="st0" d="M416.3,188.6c4.3,0,7.7-3.5,7.7-7.7c0-4.3-3.5-7.7-7.7-7.7s-7.7,3.5-7.7,7.7
		C408.6,185.2,412,188.6,416.3,188.6z"/>
	<path class="st0" d="M395.8,127.2c4.3,0,7.7-3.5,7.7-7.7c0-4.3-3.5-7.7-7.7-7.7c-4.3,0-7.7,3.5-7.7,7.7
		C388.1,123.7,391.5,127.2,395.8,127.2z"/>
	<path class="st0" d="M433.1,238.9h-33.8c-0.1,0-0.2,0-0.3,0.1l-9.5-44.1c-3-14-15.6-24.2-30-24.2h-89.9v-34.1H290
		c3.8,0,6.8-3.1,6.8-6.8v-20.5c0-3.8-3.1-6.8-6.8-6.8h-20.5V81.9c0-3.8-3.1-6.8-6.8-6.8h-20.5c-3.8,0-6.8,3.1-6.8,6.8v20.5h-20.5
		c-3.8,0-6.8,3.1-6.8,6.8v20.5c0,3.8,3.1,6.8,6.8,6.8h20.5v34.1h-83.1c-14.4,0-27,10.2-30,24.2l-9.5,44H80.9
		c-12.5,0-22.7,10.2-22.7,22.7v18.2c0,3.8,3.1,6.8,6.8,6.8h21.3C79.8,297,71.6,312,71.6,320.6v76.5c0,5.8,2.7,11,6.8,14.5v7.1
		c0,9.9,8.1,18,18,18h39.1c9.9,0,18-8.1,18-18v-2.5h34.1v6.8c0,3.8,3.1,6.8,6.8,6.8h122.9c3.8,0,6.8-3.1,6.8-6.8v-6.8h34.1v2.5
		c0,9.9,8.1,18,18,18h39.1c9.9,0,18-8.1,18-18v-7.1c4.1-3.5,6.8-8.7,6.8-14.5v-76.5c0-8.6-8.2-23.7-14.7-34.1H447
		c3.8,0,6.8-3.1,6.8-6.8v-20.2C453.8,248.2,444.5,238.9,433.1,238.9L433.1,238.9z M242.2,122.9h-20.5v-6.8h20.5
		c3.8,0,6.8-3.1,6.8-6.8V88.7h6.8v20.5c0,3.8,3.1,6.8,6.8,6.8h20.5v6.8h-20.5c-3.8,0-6.8,3.1-6.8,6.8v41H249v-41
		C249,125.9,246,122.9,242.2,122.9z M135.6,197.8c1.7-7.8,8.7-13.5,16.6-13.5h207.2c8,0,15,5.7,16.6,13.5l0,0l23.2,107
		c1.2,5.6-0.1,11.4-3.7,15.8c-3.6,4.5-8.9,7-14.6,7H130.8c-5.7,0-11.1-2.6-14.6-7c-3.6-4.5-4.9-10.2-3.7-15.9L135.6,197.8z
		 M378.7,351.6c0,5.6-4.6,10.2-10.2,10.2s-10.2-4.6-10.2-10.2s4.6-10.2,10.2-10.2S378.7,345.9,378.7,351.6z M187.6,341.3h136.5v27.3
		H187.6V341.3z M153.5,351.6c0,5.6-4.6,10.2-10.2,10.2s-10.2-4.6-10.2-10.2s4.6-10.2,10.2-10.2S153.5,345.9,153.5,351.6z
		 M71.8,273.1v-11.4c0-5,4.1-9.1,9.1-9.1h24.9l-0.2,18.9l-1.1,4.9c-1.2-2-3.4-3.3-5.8-3.3H71.8z M139.8,418.9c0,2.4-2,4.4-4.4,4.4
		h-39c-2.4,0-4.4-2-4.4-4.4v-2.5h47.8V418.9L139.8,418.9z M310.5,416.4H201.3v-13.7h109.2V416.4z M415.3,423.3h-39.1
		c-2.4,0-4.4-2-4.4-4.4v-2.5h47.8v2.5C419.7,421.3,417.7,423.3,415.3,423.3z M426.5,320.9v76.5c0,3-2.4,5.5-5.5,5.5h-96.9v-6.8
		c0-3.8-3.1-6.8-6.8-6.8H194.4c-3.8,0-6.8,3.1-6.8,6.8v6.8H90.7c-3,0-5.5-2.4-5.5-5.5v-76.5c0-5.2,8.5-20.9,17.1-33.9l-3.2,14.9
		c-2.1,9.7,0.2,19.6,6.4,27.3c4.4,5.5,10.3,9.2,16.9,11c-1.9,3.4-3,7.2-3,11.4c0,13.2,10.7,23.9,23.9,23.9s23.9-10.7,23.9-23.9
		c0-3.7-0.9-7.1-2.4-10.2h9.2v34.1c0,3.8,3.1,6.8,6.8,6.8H331c3.8,0,6.8-3.1,6.8-6.8v-34.1h9.2c-1.5,3.1-2.4,6.6-2.4,10.2
		c0,13.2,10.7,23.9,23.9,23.9c13.2,0,23.9-10.7,23.9-23.9c0-4.1-1.2-8-3-11.4c6.6-1.8,12.5-5.5,16.9-11c6.2-7.7,8.5-17.7,6.4-27.3
		l-3.2-15C418,299.9,426.5,315.6,426.5,320.9L426.5,320.9z M440.2,273.1h-27.3c-2.4,0-4.5,1.3-5.8,3.3l-1-4.8v-19h27
		c3.9,0,7.1,3.2,7.1,7.1L440.2,273.1L440.2,273.1z"/>
	<path class="st0" d="M133,266.2h245.8c2.1,0,4-0.9,5.3-2.6c1.3-1.6,1.8-3.7,1.3-5.7l-13.7-61.4c-0.7-3.1-3.5-5.3-6.7-5.3H146.6
		c-3.2,0-6,2.2-6.7,5.3l-13.7,61.4c-0.4,2,0,4.1,1.3,5.7C129,265.3,130.9,266.2,133,266.2L133,266.2z M152.1,204.8h207.5l10.6,47.8
		H141.5L152.1,204.8z"/>
	<path class="st0" d="M98.9,115.2c3.8,0,6.8-3.1,6.8-6.8v-9.7c0-3.8-3.1-6.8-6.8-6.8S92,95,92,98.7v9.7
		C92,112.2,95.1,115.2,98.9,115.2z"/>
	<path class="st0" d="M98.9,153.9c3.8,0,6.8-3.1,6.8-6.8v-9.7c0-3.8-3.1-6.8-6.8-6.8s-6.8,3.1-6.8,6.8v9.7
		C92,150.8,95.1,153.9,98.9,153.9L98.9,153.9z"/>
	<path class="st0" d="M74.7,129.7h9.7c3.8,0,6.8-3.1,6.8-6.8s-3.1-6.8-6.8-6.8h-9.7c-3.8,0-6.8,3.1-6.8,6.8S70.9,129.7,74.7,129.7z"
		/>
	<path class="st0" d="M113.3,129.7h9.7c3.8,0,6.8-3.1,6.8-6.8s-3.1-6.8-6.8-6.8h-9.7c-3.8,0-6.8,3.1-6.8,6.8
		S109.6,129.7,113.3,129.7z"/>
	<path class="st0" d="M385.6,382.3c-3.8,0-6.8,3.1-6.8,6.8c0,3.8,3.1,6.8,6.8,6.8h27.3c3.8,0,6.8-3.1,6.8-6.8c0-3.8-3.1-6.8-6.8-6.8
		H385.6z"/>
	<path class="st0" d="M126.2,382.3H98.9c-3.8,0-6.8,3.1-6.8,6.8c0,3.8,3.1,6.8,6.8,6.8h27.3c3.8,0,6.8-3.1,6.8-6.8
		C133,385.3,129.9,382.3,126.2,382.3z"/>
</g>
</svg>
