<?xml version="1.0" encoding="utf-8"?>
<!-- Generator: Adobe Illustrator 21.0.2, SVG Export Plug-In . SVG Version: 6.00 Build 0)  -->
<svg version="1.1" id="Capa_1" xmlns="http://www.w3.org/2000/svg" xmlns:xlink="http://www.w3.org/1999/xlink" x="0px" y="0px"
	 viewBox="0 0 512 512" style="enable-background:new 0 0 512 512;" xml:space="preserve">
<style type="text/css">
	.st0{fill:#FFFFFF;}
</style>
<g>
	<path class="st0" d="M413.9,112L333.5,4.3c-2-2.7-5.2-4.3-8.5-4.3H187.1c-3.3,0-6.5,1.6-8.5,4.3L98.1,112c-1,1.3-1.5,2.9-1.5,4.5
		L96.9,273c0,0.8,0.1,1.5,0.3,2.2l72.3,230.3c1.2,3.8,4.7,6.4,8.8,6.4h155.3c4,0,7.5-2.6,8.8-6.4l0,0l72.3-230.3
		c0.2-0.7,0.3-1.5,0.3-2.2l0.3-156.5C415.4,114.9,414.9,113.3,413.9,112L413.9,112z M189.2,15h133.5l76.7,102.7l-72.7,302.8h-23
		c-4.1,0-7.5,3.4-7.5,7.5s3.4,7.5,7.5,7.5h21.4L325,497H186.8v-61.5h85c4.1,0,7.5-3.4,7.5-7.5s-3.4-7.5-7.5-7.5h-86.6l-72.7-302.8
		L189.2,15z M111.9,271.9l-0.2-93.2l60.1,250.2v33.6L111.9,271.9z M340.1,462.7l0.1-33.8l60.1-250.2l-0.2,93.2L340.1,462.7z"/>
	<path class="st0" d="M134.3,145.9l60.5,250.5c1.3,5.4,6.1,9.1,11.6,9.1h99.1c5.5,0,10.3-3.7,11.6-9.1l16.1-66.5
		c1-4-1.5-8.1-5.5-9.1s-8.1,1.5-9.1,5.5l-15.5,64.1h-94.2L150.3,148c8.8-4.9,14.6-14.3,14.6-24.8c0-6.4-2.1-12.5-6-17.4L204.3,45
		h103.4l45.4,60.7c-3.9,4.9-6,11-6,17.4c0,10.4,5.8,19.9,14.6,24.8l-35.6,147.2c-1,4,1.5,8.1,5.5,9.1s8.1-1.5,9.1-5.5l36.9-152.8
		c1.1-4.3-1.5-8.7-5.8-9.9c-5.7-1.6-9.7-6.9-9.7-12.8c0-4,1.8-7.8,5-10.4c3.5-2.8,4.1-7.8,1.5-11.4L317.5,33c-1.4-1.9-3.6-3-6-3
		h-111c-2.4,0-4.6,1.1-6,3l-51.1,68.4c-2.7,3.6-2,8.6,1.5,11.4c3.2,2.6,5,6.3,5,10.4c0,5.9-4,11.2-9.7,12.8
		C135.8,137.2,133.3,141.5,134.3,145.9L134.3,145.9z"/>
	<path class="st0" d="M327,160.7v-28.6c0-5.2-4.3-9.5-9.5-9.5h-38.2V87c0-5.2-4.3-9.5-9.5-9.5h-28.6c-5.2,0-9.5,4.3-9.5,9.5v35.6
		h-38.2c-5.2,0-9.5,4.3-9.5,9.5v28.6c0,5.2,4.3,9.5,9.5,9.5h38.2v14.9c0,4.1,3.4,7.5,7.5,7.5s7.5-3.4,7.5-7.5v-20.4
		c0-5.2-4.3-9.5-9.5-9.5H199v-17.6h38.2c5.2,0,9.5-4.3,9.5-9.5V92.5h17.6V128c0,5.2,4.3,9.5,9.5,9.5H312v17.6h-38.2
		c-5.2,0-9.5,4.3-9.5,9.5v115.6h-17.6V217c0-4.1-3.4-7.5-7.5-7.5s-7.5,3.4-7.5,7.5v68.7c0,5.2,4.3,9.5,9.5,9.5h28.6
		c5.2,0,9.5-4.3,9.5-9.5V170.2h38.2C322.8,170.2,327,165.9,327,160.7L327,160.7z"/>
	<path class="st0" d="M220.3,329.3c-4.1,0-7.5,3.4-7.5,7.5s3.4,7.5,7.5,7.5H291c4.1,0,7.5-3.4,7.5-7.5s-3.4-7.5-7.5-7.5H220.3z"/>
</g>
</svg>
