<?xml version="1.0" encoding="utf-8"?>
<!-- Generator: Adobe Illustrator 21.0.2, SVG Export Plug-In . SVG Version: 6.00 Build 0)  -->
<svg version="1.1" id="Capa_1" xmlns="http://www.w3.org/2000/svg" xmlns:xlink="http://www.w3.org/1999/xlink" x="0px" y="0px"
	 viewBox="0 0 512 512" style="enable-background:new 0 0 512 512;" xml:space="preserve">
<style type="text/css">
	.st0{fill:#FFFFFF;}
</style>
<g>
	<g>
		<path class="st0" d="M22.5,279.5h467c12.4,0,22.5-10.1,22.5-22.5s-10.1-22.5-22.5-22.5h-59l8.3-152.9c0.2-4.3-3.2-7.9-7.5-7.9H409
			c0-0.2,0-0.3,0-0.5c0-10.3-8.9-18.7-21.5-21.5c3.4-5.3,5.3-11.2,5.3-16.6c0-5.5-1.9-10.2-5.4-13.7c-7.3-7.2-19.6-6.9-30.4,0
			C354.3,8.9,345.8,0,335.5,0S316.7,8.9,314,21.4c-10.8-6.9-23.1-7.2-30.4,0c-3.5,3.5-5.4,8.2-5.4,13.7c0,5.4,1.9,11.2,5.3,16.6
			C270.9,54.5,262,62.9,262,73.2c0,0.2,0,0.3,0,0.5h-12c0-0.2,0-0.3,0-0.5c0-10.3-8.9-18.7-21.5-21.5c3.4-5.3,5.3-11.2,5.3-16.6
			c0-5.5-1.9-10.2-5.4-13.7c-7.3-7.2-19.6-6.9-30.4,0C195.3,8.9,186.8,0,176.5,0S157.7,8.9,155,21.4c-10.8-6.9-23.1-7.2-30.4,0
			c-3.5,3.5-5.4,8.2-5.4,13.7c0,5.4,1.9,11.2,5.3,16.6C111.9,54.5,103,62.9,103,73.2c0,0.2,0,0.3,0,0.5H80.7c-4.3,0-7.7,3.6-7.5,7.9
			l2.6,47.1c0.2,4.1,3.7,7.3,7.9,7.1c4.1-0.2,7.3-3.8,7.1-7.9l-2.1-39.2c99.3,0,235.4,0,334.9,0l-7.9,145.8h-319l-4-74.6
			c-0.2-4.1-3.7-7.3-7.9-7.1c-4.1,0.2-7.3,3.8-7.1,7.9l4,73.8h-59C10.1,234.5,0,244.6,0,257S10.1,279.5,22.5,279.5z M394,73.2
			c0,0.2,0,0.3-0.1,0.5H363c0-0.2-0.1-0.3-0.1-0.5c0-3,6.2-7.4,15.5-7.4S394,70.2,394,73.2z M322.1,67.7c1.7-0.8,3.2-1.9,4.5-3.3
			c1.3-1.3,2.5-2.9,3.3-4.5c1.8,0.6,3.6,0.9,5.6,0.9s3.8-0.3,5.6-0.9c0.8,1.7,2,3.2,3.3,4.5c1.4,1.3,2.9,2.4,4.5,3.3
			c-0.6,1.8-0.9,3.6-0.9,5.5c0,0.2,0,0.3,0,0.5h-25c0-0.2,0-0.3,0-0.5C323,71.2,322.7,69.4,322.1,67.7z M373.8,31.1
			c1.4,0,2.5,0.3,3.1,1c0.8,0.8,0.9,2.1,0.9,3.1c0,3.1-1.7,8.2-6.6,13c-6.6,6.6-14.2,7.7-16.3,5.6c-0.8-0.8-0.9-2.1-0.9-3.1
			c0-3.1,1.7-8.2,6.6-13C365.2,33,370.4,31.1,373.8,31.1z M335.5,15c3,0,7.5,6.1,7.5,15.4s-4.5,15.4-7.5,15.4s-7.5-6.1-7.5-15.4
			S332.5,15,335.5,15z M294.1,32c0.6-0.6,1.7-1,3.1-1c3.4,0,8.5,1.9,13.2,6.6c4.9,4.8,6.6,9.9,6.6,13c0,1-0.2,2.3-0.9,3.1
			c-2.1,2.1-9.7,0.9-16.3-5.6c-4.9-4.8-6.6-9.9-6.6-13C293.2,34.1,293.3,32.8,294.1,32z M277,73.2c0-3,6.2-7.4,15.5-7.4
			s15.5,4.5,15.5,7.4c0,0.2,0,0.3-0.1,0.5H277C277,73.5,277,73.3,277,73.2z M235,73.2c0,0.2,0,0.3-0.1,0.5H204
			c0-0.2-0.1-0.3-0.1-0.5c0-3,6.2-7.4,15.5-7.4S235,70.2,235,73.2z M163.1,67.7c1.7-0.8,3.2-1.9,4.5-3.3c1.3-1.3,2.5-2.9,3.3-4.5
			c1.8,0.6,3.6,0.9,5.6,0.9s3.8-0.3,5.6-0.9c0.8,1.7,2,3.2,3.3,4.5c1.4,1.3,2.9,2.4,4.5,3.3c-0.6,1.8-0.9,3.6-0.9,5.5
			c0,0.2,0,0.3,0,0.5h-25c0-0.2,0-0.3,0-0.5C164,71.2,163.7,69.4,163.1,67.7z M214.8,31.1c1.4,0,2.5,0.3,3.1,1
			c0.8,0.8,0.9,2.1,0.9,3.1c0,3.1-1.7,8.2-6.6,13c-6.6,6.6-14.2,7.7-16.3,5.6c-0.8-0.8-0.9-2.1-0.9-3.1c0-3.1,1.7-8.2,6.6-13
			C206.2,33,211.4,31.1,214.8,31.1z M176.5,15c3,0,7.5,6.1,7.5,15.4s-4.5,15.4-7.5,15.4s-7.5-6.1-7.5-15.4S173.5,15,176.5,15z
			 M135.1,32c0.6-0.6,1.7-1,3.1-1c3.4,0,8.5,1.9,13.2,6.6c4.9,4.8,6.6,9.9,6.6,13c0,1-0.2,2.3-0.9,3.1c-2.1,2.1-9.7,0.9-16.3-5.6
			c-4.9-4.8-6.6-9.9-6.6-13C134.2,34.1,134.3,32.8,135.1,32z M118,73.2c0-3,6.2-7.4,15.5-7.4s15.5,4.5,15.5,7.4c0,0.2,0,0.3-0.1,0.5
			H118C118,73.5,118,73.3,118,73.2z M22.5,249.5h467c4.1,0,7.5,3.4,7.5,7.5s-3.4,7.5-7.5,7.5h-467c-4.1,0-7.5-3.4-7.5-7.5
			S18.4,249.5,22.5,249.5z"/>
		<path class="st0" d="M359.6,111.2c0-4.1-3.4-7.5-7.5-7.5H112.3c-2.1,0-4,0.8-5.4,2.3s-2.2,3.5-2,5.6l5.5,100.8
			c0.2,4,3.5,7.1,7.5,7.1h276.4c4,0,7.3-3.1,7.5-7.1l5.5-100.8c0.2-4.3-3.2-7.9-7.5-7.9H384c-4.1,0-7.5,3.4-7.5,7.5s3.4,7.5,7.5,7.5
			h7.8l-4.7,85.8H124.9l-4.7-85.8h231.9C356.3,118.7,359.6,115.3,359.6,111.2z"/>
		<path class="st0" d="M334.5,135.5c-9.8,0-18.1,6.3-21.2,15H198.7c-3.1-8.7-11.4-15-21.2-15c-12.4,0-22.5,10.1-22.5,22.5
			s10.1,22.5,22.5,22.5c9.8,0,18.1-6.3,21.2-15h114.7c3.1,8.7,11.4,15,21.2,15c12.4,0,22.5-10.1,22.5-22.5S347,135.5,334.5,135.5z
			 M177.4,165.5c-4.1,0-7.5-3.4-7.5-7.5s3.4-7.5,7.5-7.5s7.5,3.4,7.5,7.5S181.6,165.5,177.4,165.5z M334.5,165.5
			c-4.1,0-7.5-3.4-7.5-7.5s3.4-7.5,7.5-7.5s7.5,3.4,7.5,7.5S338.7,165.5,334.5,165.5z"/>
		<path class="st0" d="M127.5,357h-15c4.7-6.3,7.5-14.1,7.5-22.5c0-20.7-16.8-37.5-37.5-37.5S45,313.8,45,334.5
			c0,8.4,2.8,16.2,7.5,22.5h-15C16.8,357,0,373.8,0,394.5v110c0,4.1,3.4,7.5,7.5,7.5h29.3c0.2,0,0.4,0,0.7,0h90c0.2,0,0.4,0,0.7,0
			h29.3c4.1,0,7.5-3.4,7.5-7.5v-110C165,373.8,148.2,357,127.5,357z M60,334.5c0-12.4,10.1-22.5,22.5-22.5s22.5,10.1,22.5,22.5
			c0,12.3-9.9,22.3-22.1,22.5h-0.8C69.9,356.8,60,346.8,60,334.5z M30,497H15V394.5c0-9.8,6.3-18.1,15-21.2v28.8c0,0.1,0,0.1,0,0.2
			V497z M45,372h75v30.1c0,0.1,0,0.1,0,0.2V497H45V372z M150,497h-15V373.3c8.7,3.1,15,11.4,15,21.2V497z"/>
		<path class="st0" d="M474.5,357h-15c4.7-6.3,7.5-14.1,7.5-22.5c0-20.7-16.8-37.5-37.5-37.5S392,313.8,392,334.5
			c0,8.4,2.8,16.2,7.5,22.5h-15c-20.7,0-37.5,16.8-37.5,37.5v110c0,4.1,3.4,7.5,7.5,7.5h29.3c0.2,0,0.4,0,0.7,0h90
			c0.2,0,0.4,0,0.7,0h29.3c4.1,0,7.5-3.4,7.5-7.5v-110C512,373.8,495.2,357,474.5,357z M407,334.5c0-12.4,10.1-22.5,22.5-22.5
			s22.5,10.1,22.5,22.5c0,12.3-9.9,22.3-22.1,22.5h-0.8C416.9,356.8,407,346.8,407,334.5z M377,497h-15V394.5
			c0-9.8,6.3-18.1,15-21.2v28.8c0,0.1,0,0.1,0,0.2V497z M392,372h75v30.1c0,0.1,0,0.1,0,0.2V497h-75V372z M497,497h-15V373.3
			c8.7,3.1,15,11.4,15,21.2V497z"/>
		<path class="st0" d="M301,357h-15c4.7-6.3,7.5-14.1,7.5-22.5c0-20.7-16.8-37.5-37.5-37.5s-37.5,16.8-37.5,37.5
			c0,8.4,2.8,16.2,7.5,22.5h-15c-20.7,0-37.5,16.8-37.5,37.5v110c0,4.1,3.4,7.5,7.5,7.5h29.3c0.2,0,0.4,0,0.7,0h45
			c4.1,0,7.5-3.4,7.5-7.5s-3.4-7.5-7.5-7.5h-37.5V372h75v30.1c0,0.1,0,0.1,0,0.2V497H288c-4.1,0-7.5,3.4-7.5,7.5s3.4,7.5,7.5,7.5h13
			c0.2,0,0.4,0,0.7,0H331c4.1,0,7.5-3.4,7.5-7.5v-110C338.5,373.8,321.7,357,301,357z M233.5,334.5c0-12.4,10.1-22.5,22.5-22.5
			s22.5,10.1,22.5,22.5c0,12.3-9.9,22.3-22.1,22.5h-0.8C243.4,356.8,233.5,346.8,233.5,334.5z M203.5,497h-15V394.5
			c0-9.8,6.3-18.1,15-21.2v28.8c0,0.1,0,0.1,0,0.2V497z M323.5,497h-15V373.3c8.7,3.1,15,11.4,15,21.2V497z"/>
	</g>
</g>
</svg>
