<?xml version="1.0" encoding="utf-8"?>
<!-- Generator: Adobe Illustrator 21.0.2, SVG Export Plug-In . SVG Version: 6.00 Build 0)  -->
<svg version="1.1" id="Layer_1" xmlns="http://www.w3.org/2000/svg" xmlns:xlink="http://www.w3.org/1999/xlink" x="0px" y="0px"
	 viewBox="0 0 512 512" style="enable-background:new 0 0 512 512;" xml:space="preserve">
<style type="text/css">
	.st0{fill:#FFFFFF;}
</style>
<g>
	<path class="st0" d="M399.2,246l-56-84H202v84H399.2z M376.8,234H294v-60h42.8L376.8,234z M214,174h68v60h-68V174z"/>
	<path class="st0" d="M512,298h-10v-64h-82.8l-64-96H60.3L10,238.6V298H0v44h94.7c8.4,18.8,27.4,32,49.3,32s40.9-13.2,49.3-32h157.4
		c8.4,18.8,27.4,32,49.3,32s40.9-13.2,49.3-32H512V298z M490,266h-20v-20h20V266z M412.8,246H458v32h32v20h-40.7
		c-8.4-18.8-27.4-32-49.3-32s-40.9,13.2-49.3,32H193.3c-8.4-18.8-27.4-32-49.3-32s-40.9,13.2-49.3,32H54v-32H22v-20h168v-96h158.8
		L412.8,246z M67.7,150H178v84H25.7L67.7,150z M22,278h20v20H22V278z M12,330v-20h78.9c-0.6,3.2-0.9,6.6-0.9,10s0.3,6.8,0.9,10H12z
		 M144,362c-23.2,0-42-18.8-42-42s18.8-42,42-42s42,18.8,42,42S167.2,362,144,362z M197.1,330c0.6-3.2,0.9-6.6,0.9-10
		s-0.3-6.8-0.9-10H347c-0.6,3.2-0.9,6.6-0.9,10s0.3,6.8,0.9,10H197.1z M400,362c-23.2,0-42-18.8-42-42s18.8-42,42-42s42,18.8,42,42
		S423.2,362,400,362z M500,330h-46.9c0.6-3.2,0.9-6.6,0.9-10s-0.3-6.8-0.9-10H500V330z"/>
	<path class="st0" d="M400,298c-12.1,0-22,9.9-22,22s9.9,22,22,22s22-9.9,22-22S412.1,298,400,298z M400,330c-5.5,0-10-4.5-10-10
		s4.5-10,10-10s10,4.5,10,10S405.5,330,400,330z"/>
	<path class="st0" d="M144,298c-12.1,0-22,9.9-22,22s9.9,22,22,22s22-9.9,22-22S156.1,298,144,298z M144,330c-5.5,0-10-4.5-10-10
		s4.5-10,10-10s10,4.5,10,10S149.5,330,144,330z"/>
	<path class="st0" d="M170,160h-12v54h-54v12h66V160z"/>
</g>
</svg>
