<?xml version="1.0" encoding="utf-8"?>
<!-- Generator: Adobe Illustrator 21.0.2, SVG Export Plug-In . SVG Version: 6.00 Build 0)  -->
<svg version="1.1" id="_x33_0" xmlns="http://www.w3.org/2000/svg" xmlns:xlink="http://www.w3.org/1999/xlink" x="0px" y="0px"
	 viewBox="0 0 512 512" style="enable-background:new 0 0 512 512;" xml:space="preserve">
<style type="text/css">
	.st0{fill:#FFFFFF;}
</style>
<g>
	<path class="st0" d="M488,353.5v-115c9.3-3.3,16-12.1,16-22.5c0-10.5-6.9-19.4-16.3-22.6c-3.4-49.8-45-89.4-95.7-89.4v-5.8
		c0-9.4-5.2-17.8-13.6-22c-2.2-1.1-3.9-3.2-4.5-5.6l-4.6-18.4c-1.5-5.9-5.1-11.1-10.2-14.5L344.6,28c-4-2.7-8.8-4.1-13.6-4.1h-22
		c-1.7,0-3.3-0.5-4.8-1.4l-15.7-10.4c-4-2.7-8.8-4.1-13.6-4.1h-38c-4.9,0-9.6,1.4-13.6,4.1l-15.7,10.4c-1.4,0.9-3.1,1.4-4.8,1.4h-22
		c-4.9,0-9.6,1.4-13.6,4.1l-14.5,9.7c-5.1,3.4-8.7,8.5-10.2,14.5l-4.6,18.4c-0.6,2.4-2.2,4.5-4.5,5.6c-8.4,4.2-13.6,12.6-13.6,22
		v5.8c-50.7,0-92.2,39.5-95.7,89.4C14.9,196.6,8,205.5,8,216c0,10.4,6.7,19.2,16,22.5v115c-9.3,3.3-16,12.1-16,22.5
		c0,6.2,2.4,11.7,6.2,16c-3.8,4.3-6.2,9.8-6.2,16v96h496v-96c0-6.2-2.4-11.7-6.2-16c3.8-4.3,6.2-9.8,6.2-16
		C504,365.6,497.3,356.8,488,353.5L488,353.5z M472,240v112H40V240H472z M471.6,192H392v-72C433.4,120,467.6,151.6,471.6,192z
		 M136,136v-16h192v16H184v24h-16v-24H136z M344,120h32v56l-16-21.3L344,176V120z M360,181.3l8,10.7h-16L360,181.3z M136,98.2
		c0-3.3,1.8-6.2,4.8-7.7c6.4-3.2,11.1-9,12.8-16l4.6-18.4c0.5-2.1,1.8-3.9,3.6-5l14.5-9.7c1.4-0.9,3.1-1.4,4.8-1.4h22
		c4.9,0,9.6-1.4,13.6-4.1l15.7-10.4c1.4-0.9,3.1-1.4,4.8-1.4h38c1.7,0,3.3,0.5,4.8,1.4l15.7,10.4c4,2.7,8.8,4.1,13.6,4.1h22
		c1.7,0,3.3,0.5,4.8,1.4l14.5,9.7c1.8,1.2,3,3,3.6,5l4.6,18.4c1.7,7,6.4,12.8,12.9,16c2.9,1.5,4.7,4.4,4.7,7.7v5.8H136V98.2z
		 M120,120v16c0,8.8,7.2,16,16,16h16v8c0,8.8,7.2,16,16,16h16c8.8,0,16-7.2,16-16v-8h128v40H40.4C44.4,151.6,78.6,120,120,120z
		 M32,208h448c4.4,0,8,3.6,8,8s-3.6,8-8,8H32c-4.4,0-8-3.6-8-8S27.6,208,32,208z M32,368h448c4.4,0,8,3.6,8,8s-3.6,8-8,8H32
		c-4.4,0-8-3.6-8-8S27.6,368,32,368z M24,488v-40h16v-16H24v-24c0-4.4,3.6-8,8-8h448c4.4,0,8,3.6,8,8v24h-16v16h16v40H24z"/>
	<path class="st0" d="M88,320h32c0,8.8,7.2,16,16,16h16c8.8,0,16-7.2,16-16h64c0,8.8,7.2,16,16,16h16c8.8,0,16-7.2,16-16h64
		c0,8.8,7.2,16,16,16h16c8.8,0,16-7.2,16-16h32c8.8,0,16-7.2,16-16v-16c0-8.8-7.2-16-16-16h-32c0-8.8-7.2-16-16-16h-16
		c-8.8,0-16,7.2-16,16h-64c0-8.8-7.2-16-16-16h-16c-8.8,0-16,7.2-16,16h-64c0-8.8-7.2-16-16-16h-16c-8.8,0-16,7.2-16,16H88
		c-8.8,0-16,7.2-16,16v16C72,312.8,79.2,320,88,320z M424,288v16h-32v-16H424z M360,272h16v48h-16V272z M344,288v16h-64v-16H344z
		 M248,272h16v48h-16V272z M232,288v16h-64v-16H232z M136,272h16v48h-16V272z M88,288h32v16H88V288z"/>
	<path class="st0" d="M184,56h16v16h-16V56z"/>
	<path class="st0" d="M216,72h16v16h-16V72z"/>
	<path class="st0" d="M312,72h16v16h-16V72z"/>
	<path class="st0" d="M248,40h16v16h-16V40z"/>
	<path class="st0" d="M280,56h16v16h-16V56z"/>
	<path class="st0" d="M56,432h400v16H56V432z"/>
</g>
</svg>
