<?xml version="1.0" encoding="utf-8"?>
<!-- Generator: Adobe Illustrator 21.0.2, SVG Export Plug-In . SVG Version: 6.00 Build 0)  -->
<svg version="1.1" id="_x33_0" xmlns="http://www.w3.org/2000/svg" xmlns:xlink="http://www.w3.org/1999/xlink" x="0px" y="0px"
	 viewBox="0 0 512 512" style="enable-background:new 0 0 512 512;" xml:space="preserve">
<style type="text/css">
	.st0{fill:#FFFFFF;}
</style>
<g>
	<path class="st0" d="M504,168v-16c0-8.8-7.2-16-16-16h-0.6c-2.3-17.1-11.5-33.1-19.4-44.2C459.2,79.4,444.7,72,429.2,72h-94.4
		c0.7-2.6,1.1-5.2,1.1-8c0-12.5-7.1-23.6-18.1-28.8C312.5,19.2,297.2,8,280,8c-10.2,0-19.9,3.9-27.2,10.7c-4-1.8-8.3-2.7-12.8-2.7
		c-11.7,0-22.3,6.4-27.8,16.3C193.1,29.7,176,45,176,64c0,2.8,0.5,5.4,1.1,8H82.8c-15.5,0-30,7.4-38.8,19.8
		c-7.9,11.1-17,27.1-19.4,44.2H24c-8.8,0-16,7.2-16,16v16c0,8.8,7.2,16,16,16v128c0,14.9,10.2,27.3,24,30.9v1.1H24
		c-8.8,0-16,7.2-16,16v64c0,8.8,7.2,16,16,16h17.5c-0.9,2.5-1.5,5.2-1.5,8c0,13.2,10.8,24,24,24h9.5c-0.9,2.5-1.5,5.2-1.5,8
		c0,13.2,10.8,24,24,24h80c13.2,0,24-10.8,24-24c0-3.2-0.6-6.2-1.8-8.9c10.2-2.8,17.8-12,17.8-23.1c0-13.2-10.8-24-24-24h-24v-96h64
		v160.2c0,8.7,7.2,15.8,16,15.8h240c8.8,0,16-7.1,16-15.8V215.8c0-8.7-7.2-15.8-16-15.8v-16C496.8,184,504,176.8,504,168L504,168z
		 M455,101.1c6.4,9.1,13.8,21.8,16.2,34.9H296v-35c1.4-1.6,2.8-3.4,3.8-5.3c9.5,1.3,18.5-1.9,25.2-7.7h104.2
		C439.6,88,449.2,92.9,455,101.1z M248,115.5V136h-16v-16C237.8,120,243.2,118.3,248,115.5z M264,111c2.6,0.7,5.3,1,8,1
		c2.8,0,5.4-0.4,8-1v25h-16V111z M208,48c2,0,4,0.4,5.8,1.2l8.4,3.5l2.3-8.8c1.9-7,8.2-11.8,15.4-11.8c3.5,0,6.8,1.1,9.6,3.2
		l6.5,4.9l4.8-6.6c4.4-6,11.6-9.6,19.2-9.6c11.2,0,21.1,7.9,23.5,18.9l1,4.6l4.5,1.4c6.5,2,11,8.1,11,15.1c0,8.8-7.2,16-16,16
		c-2,0-4-0.4-5.8-1.2l-8.4-3.5l-2.3,8.8c-1.9,7-8.2,11.8-15.4,11.8c-4.5,0-8.6-1.8-11.6-5.1l-8.9-9.7L247,93.6
		c-2.3,6.2-8.3,10.4-15,10.4c-8.8,0-16-7.2-16-16v-8h-8c-8.8,0-16-7.2-16-16S199.2,48,208,48z M57,101.1C62.8,92.9,72.4,88,82.8,88
		h104.1c3.9,3.5,8.7,6,13.9,7.2c2,8.7,7.6,16.1,15.2,20.5V136H40.8C43.2,122.9,50.6,110.1,57,101.1z M24,152h464v16H24V152z M40,312
		c0-9,10.5-27.1,16-31.4c5.5,4.3,16,22.4,16,31.4c0,8.8-7.2,16-16,16S40,320.8,40,312z M24,360h64v64H24V360z M200,448
		c0,4.4-3.6,8-8,8h-40v16h24c4.4,0,8,3.6,8,8s-3.6,8-8,8H96c-4.4,0-8-3.6-8-8s3.6-8,8-8h24v-16H96l0,0c0,0,0,0-0.1,0H64
		c-4.4,0-8-3.6-8-8s3.6-8,8-8h128C196.4,440,200,443.6,200,448z M104,424v-64c0-8.8-7.2-16-16-16H64v-1.1c13.8-3.6,24-16,24-30.9
		c0-4.1-1.4-9.9-3.8-16h67c0.4,0,0.7,0.1,0.8,0v128H104z M104,264c-8.8,0-16-7.2-16-16c0-9,10.5-27.1,16-31.4
		c5.5,4.3,16,22.4,16,31.4C120,256.8,112.8,264,104,264z M299.6,311.7c-2.3,7-3.6,14.4-3.6,21.9v7.6c0,14.7,10,27.5,24.2,31l9.3,2.3
		c2.9,3.9,6.5,7.4,10.5,10.3l-2.6,10.5l-14.1,3.5c-10,2.5-19.2,7.7-26.5,15c-10.8,10.8-16.7,25.1-16.7,40.4v-123L299.6,311.7z
		 M383.7,401.7c-0.8,3.6-3.8,6.3-7.7,6.3h-16c-3.8,0-6.9-2.8-7.7-6.3l2.4-9.6c4.2,1.2,8.7,1.9,13.3,1.9s9.1-0.7,13.3-1.9
		L383.7,401.7z M368,378c-17.6,0-32-14.4-32-32v-12.2c11.8-3.9,22.8-10.3,32-18.6c9.2,8.3,20.2,14.7,32,18.6V346
		C400,363.7,385.6,378,368,378z M405.1,318.6c-11-3.7-21.1-9.9-29.2-18.1l-7.8-7.8l-7.8,7.8c-8.2,8.2-18.3,14.4-29.2,18.1
		c-6.6,2.2-11,8.3-11,15.2V346c0,3.3,0.3,6.5,1,9.6c-5.4-2.6-9-8.1-9-14.3v-7.6c0-12.1,4.2-24,11.7-33.5
		c10.1-12.7,25.2-20.1,41.5-20.4l3.3-0.1c16.9-0.2,33.2,7.3,43.8,20.4c7.6,9.5,11.7,21.4,11.7,33.5v7.6c0,6.2-3.6,11.7-9,14.3
		c0.6-3.1,1-6.3,1-9.6v-12.2C416,326.9,411.6,320.8,405.1,318.6L405.1,318.6z M296,454.3c0-11,4.3-21.3,12-29.1
		c5.3-5.3,11.9-9,19.1-10.8l11.9-3c4.1,7.4,11.9,12.5,20.9,12.5h16c9,0,16.9-5.1,20.9-12.5l11.9,3c7.2,1.8,13.8,5.5,19.1,10.8
		c7.8,7.8,12,18.1,12,29.1v1.7H296V454.3z M439.3,414c-7.3-7.3-16.5-12.5-26.5-15l-14.2-3.5L396,385c4-2.9,7.5-6.4,10.5-10.3
		l9.3-2.3c14.3-3.6,24.2-16.3,24.2-31v-7.6c0-15.7-5.4-31.2-15.3-43.5c-13.6-17-34.8-26.9-56.6-26.4l-3.2,0.1
		c-7.3,0.1-14.3,1.4-21,3.7l19.4-19.4H456v206.3C456,439.1,450.1,424.8,439.3,414L439.3,414z M248,340.7v-25.4l99.4-99.4h25.4
		L248,340.7z M280,260.7V248h12.7L280,260.7z M308.7,232H264v44.7l-16,16V216l76.8-0.1L308.7,232z M488,488H248V363.3l16-16V472h208
		V232h-92.7l16.1-16.1l92.6-0.1V488z M472,200H248c-8.8,0-16,7.1-16,15.8V312h-64v-16.4c0-8.6-7.5-15.6-16.8-15.6H112v-1.1
		c13.8-3.6,24-16,24-30.9c0-14.3-16.7-48-32-48s-32,33.7-32,48c0,14.9,10.2,27.3,24,30.9v1.1H76c-5.8-9-13.1-16-20-16
		c-5.4,0-11,4.3-16,10.4V184h432V200z"/>
	<path class="st0" d="M272,40h16v16h-16V40z"/>
	<path class="st0" d="M224,56h16v16h-16V56z"/>
</g>
</svg>
